<svg width="501" height="500" viewBox="0 0 501 500" fill="none" xmlns="http://www.w3.org/2000/svg">
    <path d="M250.5 421.39C357.582 421.39 444.39 416.322 444.39 410.07C444.39 403.818 357.582 398.75 250.5 398.75C143.417 398.75 56.61 403.818 56.61 410.07C56.61 416.322 143.417 421.39 250.5 421.39Z" fill="#F5F5F5"/>
    <path d="M238.9 341.53H45.81C44.2964 341.527 42.8456 340.925 41.7753 339.855C40.7051 338.784 40.1026 337.334 40.1 335.82V64.39C40.1158 62.8851 40.724 61.4471 41.7928 60.3876C42.8617 59.3281 44.305 58.7325 45.81 58.73H238.9C240.413 58.7326 241.862 59.3354 242.931 60.4059C244 61.4765 244.6 62.9273 244.6 64.44V335.82C244.6 337.333 244 338.783 242.931 339.854C241.862 340.925 240.413 341.527 238.9 341.53ZM45.81 58.93C44.3627 58.9326 42.9755 59.5087 41.9521 60.5321C40.9287 61.5555 40.3526 62.9427 40.35 64.39V335.82C40.3526 337.267 40.9287 338.654 41.9521 339.678C42.9755 340.701 44.3627 341.277 45.81 341.28H238.9C240.346 341.277 241.733 340.701 242.754 339.677C243.776 338.654 244.35 337.266 244.35 335.82V64.39C244.35 62.9436 243.776 61.5564 242.754 60.5327C241.733 59.5091 240.346 58.9326 238.9 58.93H45.81Z" fill="#E6E6E6"/>
    <path d="M455.2 341.53H262.1C260.587 341.527 259.138 340.925 258.069 339.854C257 338.783 256.4 337.333 256.4 335.82V64.39C256.413 62.886 257.019 61.448 258.086 60.3882C259.154 59.3285 260.596 58.7326 262.1 58.73H455.2C456.704 58.7326 458.146 59.3285 459.214 60.3882C460.281 61.448 460.887 62.886 460.9 64.39V335.82C460.9 337.333 460.3 338.783 459.231 339.854C458.162 340.925 456.713 341.527 455.2 341.53ZM262.1 58.93C260.654 58.9326 259.267 59.5091 258.246 60.5327C257.224 61.5564 256.65 62.9436 256.65 64.39V335.82C256.65 337.266 257.224 338.654 258.246 339.677C259.267 340.701 260.654 341.277 262.1 341.28H455.2C456.648 341.277 458.036 340.702 459.061 339.678C460.086 338.655 460.665 337.268 460.67 335.82V64.39C460.665 62.9418 460.086 61.5546 459.061 60.5315C458.036 59.5084 456.648 58.9326 455.2 58.93H262.1Z" fill="#E6E6E6"/>
    <path d="M95.5 392.21H54.29V392.46H95.5V392.21Z" fill="#E0E0E0"/>
    <path d="M179.5 390.21H138.17V390.46H179.5V390.21Z" fill="#E0E0E0"/>
    <path d="M233.28 390.21H223.28V390.46H233.28V390.21Z" fill="#E0E0E0"/>
    <path d="M133.33 398.75H87.08V399H133.33V398.75Z" fill="#E0E0E0"/>
    <path d="M293.3 392.08H271.7V392.33H293.3V392.08Z" fill="#E0E0E0"/>
    <path d="M330.13 392.08H302.2V392.33H330.13V392.08Z" fill="#E0E0E0"/>
    <path d="M464.83 396.31H402.39V396.56H464.83V396.31Z" fill="#E0E0E0"/>
    <path d="M412.94 114.23H365.33V147.5H412.94V114.23Z" fill="#E6E6E6"/>
    <path d="M386.8 114.23H365.33V147.5H386.8V114.23Z" fill="#F0F0F0"/>
    <path opacity="0.4" d="M376.05 118.74C377.452 118.74 378.823 119.156 379.989 119.935C381.155 120.714 382.064 121.821 382.6 123.117C383.137 124.412 383.277 125.838 383.004 127.213C382.73 128.589 382.055 129.852 381.063 130.843C380.072 131.835 378.808 132.51 377.433 132.784C376.058 133.057 374.632 132.917 373.337 132.38C372.041 131.844 370.934 130.935 370.155 129.769C369.376 128.603 368.96 127.232 368.96 125.83C368.96 123.95 369.707 122.146 371.037 120.817C372.366 119.487 374.17 118.74 376.05 118.74Z" fill="#E0E0E0"/>
    <path d="M379.5 139.66C379.5 140.344 379.297 141.013 378.917 141.582C378.537 142.151 377.996 142.595 377.364 142.857C376.732 143.119 376.036 143.187 375.365 143.054C374.694 142.92 374.077 142.59 373.593 142.107C373.109 141.623 372.78 141.006 372.646 140.335C372.513 139.664 372.581 138.968 372.843 138.336C373.105 137.704 373.549 137.163 374.118 136.783C374.687 136.403 375.356 136.2 376.04 136.2C376.495 136.199 376.945 136.287 377.366 136.461C377.786 136.634 378.168 136.889 378.489 137.21C378.811 137.532 379.066 137.914 379.239 138.334C379.413 138.755 379.501 139.205 379.5 139.66Z" fill="#E0E0E0"/>
    <path d="M376 128.33C377.116 128.33 378.02 127.426 378.02 126.31C378.02 125.194 377.116 124.29 376 124.29C374.884 124.29 373.98 125.194 373.98 126.31C373.98 127.426 374.884 128.33 376 128.33Z" fill="#FAFAFA"/>
    <path d="M311.3 102.31H290.71V147.51H311.3V102.31Z" fill="#F0F0F0"/>
    <path d="M338.05 102.31H310.73V147.51H338.05V102.31Z" fill="#E6E6E6"/>
    <path d="M300.93 116.66C301.496 116.658 302.051 116.824 302.523 117.138C302.994 117.451 303.363 117.898 303.58 118.421C303.798 118.944 303.856 119.52 303.745 120.075C303.635 120.631 303.363 121.142 302.962 121.542C302.562 121.943 302.051 122.215 301.495 122.326C300.94 122.436 300.364 122.378 299.841 122.16C299.318 121.943 298.871 121.575 298.558 121.103C298.244 120.631 298.078 120.077 298.08 119.51C298.083 118.755 298.384 118.032 298.918 117.498C299.452 116.964 300.175 116.663 300.93 116.66Z" fill="white"/>
    <path d="M300.93 112.21C301.213 112.21 301.489 112.294 301.724 112.451C301.96 112.608 302.143 112.831 302.251 113.093C302.359 113.354 302.388 113.642 302.332 113.919C302.277 114.196 302.141 114.451 301.941 114.651C301.741 114.851 301.486 114.987 301.209 115.043C300.932 115.098 300.644 115.069 300.383 114.961C300.121 114.853 299.898 114.67 299.741 114.434C299.584 114.199 299.5 113.923 299.5 113.64C299.5 113.452 299.537 113.266 299.609 113.093C299.681 112.919 299.786 112.762 299.919 112.629C300.052 112.496 300.209 112.391 300.383 112.319C300.556 112.247 300.742 112.21 300.93 112.21Z" fill="white"/>
    <path d="M300.93 107.89C301.213 107.89 301.489 107.974 301.724 108.131C301.96 108.288 302.143 108.511 302.251 108.773C302.359 109.034 302.388 109.322 302.332 109.599C302.277 109.876 302.141 110.131 301.941 110.331C301.741 110.531 301.486 110.667 301.209 110.723C300.932 110.778 300.644 110.749 300.383 110.641C300.121 110.533 299.898 110.35 299.741 110.114C299.584 109.879 299.5 109.603 299.5 109.32C299.5 109.132 299.537 108.946 299.609 108.773C299.681 108.599 299.786 108.442 299.919 108.309C300.052 108.176 300.209 108.071 300.383 107.999C300.556 107.927 300.742 107.89 300.93 107.89Z" fill="white"/>
    <path d="M337.57 127.66H291.17V128.37H337.57V127.66Z" fill="#E0E0E0"/>
    <path d="M337.57 131.67H291.17V132.38H337.57V131.67Z" fill="#E0E0E0"/>
    <path d="M337.57 135.68H291.17V136.39H337.57V135.68Z" fill="#E0E0E0"/>
    <path d="M337.57 139.69H291.17V140.4H337.57V139.69Z" fill="#E0E0E0"/>
    <path d="M337.57 143.7H291.17V144.41H337.57V143.7Z" fill="#E0E0E0"/>
    <path d="M301.42 128.88H299.46V130.84H301.42V128.88Z" fill="#E0E0E0"/>
    <path d="M301.42 133.1H299.46V135.06H301.42V133.1Z" fill="#E0E0E0"/>
    <path d="M301.42 136.9H299.46V138.86H301.42V136.9Z" fill="#E0E0E0"/>
    <path d="M301.42 141H299.46V142.96H301.42V141Z" fill="#E0E0E0"/>
    <path d="M301.42 144.98H299.46V146.94H301.42V144.98Z" fill="#E0E0E0"/>
    <path d="M251.37 192H250.37V153.71C250.373 151.642 251.195 149.66 252.657 148.197C254.12 146.735 256.102 145.913 258.17 145.91H291.17V146.91H258.17C256.367 146.913 254.639 147.63 253.365 148.905C252.09 150.179 251.373 151.907 251.37 153.71V192Z" fill="#E0E0E0"/>
    <path d="M249.37 192.07H248.37V153.43C248.373 150.922 249.37 148.517 251.144 146.744C252.917 144.97 255.322 143.973 257.83 143.97H291.17V144.97H257.83C255.587 144.973 253.437 145.865 251.851 147.451C250.265 149.037 249.373 151.187 249.37 153.43V192.07Z" fill="#E0E0E0"/>
    <path d="M139.87 96H108.56V129.33H139.87V96Z" fill="#E6E6E6"/>
    <path d="M147.89 96H139.87V129.33H147.89V96Z" fill="#F5F5F5"/>
    <path d="M123.87 90.86H100.35V129.33H123.87V90.86Z" fill="#E6E6E6"/>
    <path d="M130.66 90.86H123.86V129.33H130.66V90.86Z" fill="#F5F5F5"/>
    <path d="M116.94 96H97.11V129.33H116.94V96Z" fill="#EBEBEB"/>
    <path d="M121.47 96H116.94V129.33H121.47V96Z" fill="#F5F5F5"/>
    <path d="M100.71 101.64H74.7V129.33H100.71V101.64Z" fill="#E6E6E6"/>
    <path d="M107.37 101.64H100.71V129.33H107.37V101.64Z" fill="#F5F5F5"/>
    <path d="M87.42 97.37H67.88V129.33H87.42V97.37Z" fill="#E6E6E6"/>
    <path d="M93.06 97.37H87.41V129.33H93.06V97.37Z" fill="#F5F5F5"/>
    <path d="M81.66 101.64H62.68V129.33H81.66V101.64Z" fill="#E6E6E6"/>
    <path d="M85.43 101.64H81.67V129.33H85.43V101.64Z" fill="#F0F0F0"/>
    <path d="M40.5 138.96L244.5 138.96V129.31L40.5 129.31V138.96Z" fill="#E6E6E6"/>
    <path d="M77.11 139.19H88.39L80.17 151.6H77.11V139.19Z" fill="#E0E0E0"/>
    <path d="M77.11 139.19H75.48V151.6H77.11V139.19Z" fill="#E0E0E0"/>
    <path d="M203.81 139.19H215.1L206.88 151.6H203.81V139.19Z" fill="#E0E0E0"/>
    <path d="M203.82 139.19H202.19V151.6H203.82V139.19Z" fill="#E0E0E0"/>
    <path d="M460.73 147.51H256.73V157.16H460.73V147.51Z" fill="#E6E6E6"/>
    <path d="M424.13 169.79H421.06L412.84 157.38H424.13V169.79Z" fill="#E0E0E0"/>
    <path d="M425.76 157.38H424.13V169.79H425.76V157.38Z" fill="#E0E0E0"/>
    <path d="M297.42 169.79H294.35L286.13 157.38H297.42V169.79Z" fill="#E0E0E0"/>
    <path d="M299.05 157.38H297.42V169.79H299.05V157.38Z" fill="#E0E0E0"/>
    <path d="M197.95 109.89C197.951 108.457 197.739 107.031 197.32 105.66L201.03 102.4L198.7 98.35L194.02 99.94C192.049 97.8336 189.499 96.3582 186.69 95.7L185.69 90.86H181.02L180.02 95.7C177.214 96.3583 174.667 97.8339 172.7 99.94L168.01 98.35L165.68 102.4L169.39 105.66C168.55 108.417 168.55 111.363 169.39 114.12L165.68 117.38L168.01 121.43L172.7 119.84C174.667 121.946 177.214 123.422 180.02 124.08L181.02 128.92H185.69L186.69 124.08C189.499 123.422 192.049 121.946 194.02 119.84L198.7 121.43L201.03 117.38L197.32 114.12C197.739 112.749 197.951 111.323 197.95 109.89ZM183.39 117.75C181.893 117.75 180.429 117.306 179.184 116.474C177.939 115.642 176.969 114.46 176.396 113.077C175.823 111.694 175.673 110.172 175.965 108.703C176.258 107.235 176.979 105.886 178.037 104.827C179.096 103.769 180.445 103.048 181.913 102.755C183.382 102.463 184.904 102.613 186.287 103.186C187.67 103.759 188.852 104.729 189.684 105.974C190.516 107.219 190.96 108.683 190.96 110.18C190.96 112.188 190.162 114.113 188.743 115.533C187.323 116.952 185.398 117.75 183.39 117.75Z" fill="#F0F0F0"/>
    <path d="M223.21 112.34C222.724 111.532 222.117 110.804 221.41 110.18L222.41 107.07L219.71 105.6L217.62 108.1C215.794 107.592 213.858 107.64 212.06 108.24L209.85 105.86L207.22 107.46L208.34 110.51C206.991 111.847 206.066 113.551 205.68 115.41L202.51 116.13L202.59 119.2L205.8 119.76C206.278 121.594 207.287 123.247 208.7 124.51L207.7 127.62L210.4 129.09L212.49 126.59C214.32 127.088 216.257 127.04 218.06 126.45L220.27 128.83L222.89 127.23L221.77 124.17C223.118 122.837 224.043 121.136 224.43 119.28L227.6 118.56L227.52 115.48L224.32 114.93C224.085 114.015 223.711 113.141 223.21 112.34ZM217.74 121.76C216.897 122.279 215.919 122.535 214.93 122.498C213.941 122.46 212.985 122.13 212.184 121.548C211.383 120.967 210.772 120.161 210.429 119.233C210.087 118.304 210.027 117.295 210.259 116.332C210.49 115.37 211.002 114.498 211.73 113.826C212.457 113.155 213.367 112.715 214.345 112.562C215.323 112.408 216.325 112.549 217.223 112.965C218.121 113.381 218.875 114.055 219.39 114.9C220.078 116.029 220.291 117.385 219.981 118.671C219.672 119.956 218.866 121.067 217.74 121.76Z" fill="#F0F0F0"/>
    <path d="M454.68 273.12H47.06V278.25H454.68V273.12Z" fill="#407BFF"/>
    <path d="M71.34 276.8V399.14H74.52L78.52 276.8H71.34Z" fill="#407BFF"/>
    <path d="M108.88 280.8V394.14H112.06L116.06 280.8H108.88Z" fill="#407BFF"/>
    <path opacity="0.5" d="M108.88 280.8V394.14H112.06L116.06 280.8H108.88Z" fill="black"/>
    <path d="M431.85 276.8V399.14H428.68L424.67 276.8H431.85Z" fill="#407BFF"/>
    <path d="M394.31 280.8V394.14H391.13L387.13 280.8H394.31Z" fill="#407BFF"/>
    <path opacity="0.5" d="M394.31 280.8V394.14H391.13L387.13 280.8H394.31Z" fill="black"/>
    <path d="M439.1 283.74H63.84L55.54 278.25H447.4L439.1 283.74Z" fill="#407BFF"/>
    <path opacity="0.5" d="M439.1 283.74H63.84L55.54 278.25H447.4L439.1 283.74Z" fill="black"/>
    <path d="M73.85 257.39V261.39C73.8499 262.053 74.1123 262.69 74.58 263.16L77.75 266.33C78.0308 266.609 78.3734 266.818 78.75 266.94C79.4035 268.347 80.4454 269.537 81.7528 270.372C83.0603 271.206 84.5789 271.65 86.13 271.65H87.32C88.396 271.657 89.4627 271.45 90.4582 271.041C91.4536 270.632 92.358 270.03 93.1189 269.269C93.8798 268.508 94.4821 267.604 94.8908 266.608C95.2996 265.613 95.5066 264.546 95.5 263.47V254.14H78.02V254.9H76.35C75.6887 254.9 75.0543 255.162 74.5857 255.629C74.1172 256.095 73.8526 256.729 73.85 257.39ZM75.85 257.39C75.85 257.325 75.863 257.26 75.8882 257.2C75.9135 257.14 75.9504 257.086 75.997 257.04C76.0436 256.994 76.0988 256.958 76.1594 256.934C76.22 256.91 76.2848 256.899 76.35 256.9H78.02V263.47C78.02 263.56 78.02 263.65 78.02 263.74L76.02 261.74C75.9719 261.695 75.9338 261.641 75.9079 261.581C75.8821 261.521 75.8692 261.456 75.87 261.39L75.85 257.39Z" fill="#407BFF"/>
    <path opacity="0.5" d="M73.85 257.39V261.39C73.8499 262.053 74.1123 262.69 74.58 263.16L77.75 266.33C78.0308 266.609 78.3734 266.818 78.75 266.94C79.4035 268.347 80.4454 269.537 81.7528 270.372C83.0603 271.206 84.5789 271.65 86.13 271.65H87.32C88.396 271.657 89.4627 271.45 90.4582 271.041C91.4536 270.632 92.358 270.03 93.1189 269.269C93.8798 268.508 94.4821 267.604 94.8908 266.608C95.2996 265.613 95.5066 264.546 95.5 263.47V254.14H78.02V254.9H76.35C75.6887 254.9 75.0543 255.162 74.5857 255.629C74.1172 256.095 73.8526 256.729 73.85 257.39ZM75.85 257.39C75.85 257.325 75.863 257.26 75.8882 257.2C75.9135 257.14 75.9504 257.086 75.997 257.04C76.0436 256.994 76.0988 256.958 76.1594 256.934C76.22 256.91 76.2848 256.899 76.35 256.9H78.02V263.47C78.02 263.56 78.02 263.65 78.02 263.74L76.02 261.74C75.9719 261.695 75.9338 261.641 75.9079 261.581C75.8821 261.521 75.8692 261.456 75.87 261.39L75.85 257.39Z" fill="white"/>
    <path d="M99.64 273H74.5C73.3505 272.898 72.2806 272.37 71.5 271.52H102.6C101.831 272.363 100.776 272.891 99.64 273Z" fill="#407BFF"/>
    <path opacity="0.5" d="M99.64 273H74.5C73.3505 272.898 72.2806 272.37 71.5 271.52H102.6C101.831 272.363 100.776 272.891 99.64 273Z" fill="white"/>
    <path d="M437.86 260.76C437.73 256.76 434.71 255.82 430.77 255.37V253.92C430.765 253.752 430.694 253.593 430.572 253.477C430.45 253.361 430.288 253.297 430.12 253.3H416.5C416.416 253.297 416.332 253.311 416.254 253.341C416.175 253.371 416.103 253.416 416.042 253.473C415.98 253.531 415.931 253.6 415.896 253.677C415.862 253.753 415.843 253.836 415.84 253.92V272.83H430.78V270.76C434.72 270.32 437.74 264.74 437.86 260.76ZM430.77 268.32V257.82C433.67 258.24 435.67 258.64 435.24 261.54C434.9 263.86 433.08 268 430.77 268.32Z" fill="#407BFF"/>
    <g opacity="0.5">
    <path d="M437.86 260.76C437.73 256.76 434.71 255.82 430.77 255.37V253.92C430.765 253.752 430.694 253.593 430.572 253.477C430.45 253.361 430.288 253.297 430.12 253.3H416.5C416.416 253.297 416.332 253.311 416.254 253.341C416.175 253.371 416.103 253.416 416.042 253.473C415.98 253.531 415.931 253.6 415.896 253.677C415.862 253.753 415.843 253.836 415.84 253.92V272.83H430.78V270.76C434.72 270.32 437.74 264.74 437.86 260.76ZM430.77 268.32V257.82C433.67 258.24 435.67 258.64 435.24 261.54C434.9 263.86 433.08 268 430.77 268.32Z" fill="white"/>
    </g>
    <path d="M256.39 248.73H244.6V272.68H256.39V248.73Z" fill="#407BFF"/>
    <path opacity="0.5" d="M256.39 248.73H244.6V272.68H256.39V248.73Z" fill="white"/>
    <path d="M261.72 273.11H239.38L244.83 268.32H256.27L261.72 273.11Z" fill="#407BFF"/>
    <path opacity="0.5" d="M261.72 273.11H239.38L244.83 268.32H256.27L261.72 273.11Z" fill="white"/>
    <path d="M310.83 265.36H254.99L265.08 273.14H320.91L310.83 265.36Z" fill="#407BFF"/>
    <path opacity="0.4" d="M310.83 265.36H254.99L265.08 273.14H320.91L310.83 265.36Z" fill="white"/>
    <path d="M256.28 273.14L254.99 265.36L265.08 273.14H256.28Z" fill="#407BFF"/>
    <path opacity="0.5" d="M256.28 273.14L254.99 265.36L265.08 273.14H256.28Z" fill="black"/>
    <path d="M301.03 192.04H199.4C198.334 192.04 197.47 192.904 197.47 193.97V256.29C197.47 257.356 198.334 258.22 199.4 258.22H301.03C302.096 258.22 302.96 257.356 302.96 256.29V193.97C302.96 192.904 302.096 192.04 301.03 192.04Z" fill="#407BFF"/>
    <path opacity="0.5" d="M299.02 196.18H201.3V253.85H299.02V196.18Z" fill="black"/>
    <path opacity="0.4" d="M295.91 208.04H246.6V241.99H295.91V208.04Z" fill="black"/>
    <path d="M295.91 208.04H246.6V211.15H295.91V208.04Z" fill="#407BFF"/>
    <path d="M255.64 226.82L263.7 231.28C264.007 231.428 264.283 231.635 264.51 231.89C264.647 232.09 264.717 232.328 264.71 232.57C264.711 232.739 264.677 232.907 264.612 233.063C264.547 233.22 264.451 233.361 264.33 233.48C264.218 233.599 264.084 233.694 263.934 233.76C263.785 233.825 263.623 233.859 263.46 233.86C263.102 233.819 262.759 233.692 262.46 233.49L252.06 227.71C251.894 227.627 251.754 227.499 251.656 227.341C251.558 227.183 251.506 227.001 251.506 226.815C251.506 226.629 251.558 226.447 251.656 226.289C251.754 226.131 251.894 226.003 252.06 225.92L262.46 220.14C262.761 219.946 263.104 219.826 263.46 219.79C263.624 219.788 263.787 219.819 263.939 219.883C264.09 219.947 264.227 220.041 264.34 220.16C264.461 220.276 264.558 220.416 264.623 220.571C264.689 220.725 264.721 220.892 264.72 221.06C264.729 221.302 264.659 221.541 264.52 221.74C264.293 221.995 264.017 222.202 263.71 222.35L255.64 226.82Z" fill="white"/>
    <path d="M276.38 218.49L268.38 235.68C268.252 235.992 268.065 236.278 267.83 236.52C267.613 236.689 267.345 236.778 267.07 236.77C266.907 236.773 266.744 236.742 266.593 236.68C266.442 236.618 266.305 236.526 266.19 236.41C266.072 236.306 265.978 236.178 265.912 236.035C265.847 235.892 265.812 235.737 265.81 235.58C265.839 235.229 265.941 234.889 266.11 234.58L274.11 217.4C274.235 217.094 274.415 216.812 274.64 216.57C274.86 216.399 275.131 216.307 275.41 216.31C275.572 216.308 275.733 216.338 275.882 216.4C276.032 216.462 276.167 216.554 276.28 216.67C276.393 216.775 276.484 216.901 276.546 217.042C276.607 217.184 276.64 217.336 276.64 217.49C276.625 217.838 276.537 218.179 276.38 218.49Z" fill="white"/>
    <path d="M286.41 226.82L278.35 222.35C278.046 222.196 277.772 221.99 277.54 221.74C277.401 221.541 277.331 221.302 277.34 221.06C277.338 220.892 277.371 220.725 277.437 220.571C277.502 220.416 277.599 220.276 277.72 220.16C277.835 220.041 277.974 219.947 278.127 219.883C278.28 219.82 278.444 219.788 278.61 219.79C278.966 219.828 279.308 219.948 279.61 220.14L290.01 225.92C290.176 226.003 290.316 226.131 290.414 226.289C290.512 226.447 290.564 226.629 290.564 226.815C290.564 227.001 290.512 227.183 290.414 227.341C290.316 227.499 290.176 227.627 290.01 227.71L279.61 233.49C279.31 233.69 278.968 233.817 278.61 233.86C278.441 233.862 278.273 233.828 278.118 233.761C277.963 233.694 277.824 233.595 277.71 233.47C277.592 233.352 277.498 233.212 277.435 233.057C277.371 232.903 277.339 232.737 277.34 232.57C277.333 232.328 277.403 232.09 277.54 231.89C277.772 231.64 278.046 231.434 278.35 231.28L286.41 226.82Z" fill="white"/>
    <path d="M208.65 201.5H205.31V204.84H208.65V201.5Z" fill="white"/>
    <path d="M208.65 210.15H205.31V213.49H208.65V210.15Z" fill="white"/>
    <path d="M208.65 218.79H205.31V222.13H208.65V218.79Z" fill="white"/>
    <path d="M208.65 227.43H205.31V230.77H208.65V227.43Z" fill="white"/>
    <path d="M208.65 236.07H205.31V239.41H208.65V236.07Z" fill="white"/>
    <path d="M208.65 244.71H205.31V248.05H208.65V244.71Z" fill="white"/>
    <path d="M225.13 202.26H211.82V203.26H225.13V202.26Z" fill="white"/>
    <path d="M219.66 210.92H214.92V211.92H219.66V210.92Z" fill="white"/>
    <path d="M240.29 220.64H235.55V221.64H240.29V220.64Z" fill="white"/>
    <path d="M219.66 228.35H214.92V229.35H219.66V228.35Z" fill="white"/>
    <path d="M226.49 228.35H221.75V229.35H226.49V228.35Z" fill="white"/>
    <path d="M233.86 220.64H221.75V221.64H233.86V220.64Z" fill="white"/>
    <path d="M236.78 228.35H228.81V229.35H236.78V228.35Z" fill="white"/>
    <path d="M233.52 246.88H228.78V247.88H233.52V246.88Z" fill="white"/>
    <path d="M240.36 246.88H235.62V247.88H240.36V246.88Z" fill="white"/>
    <path d="M245.32 246.88H242.67V247.88H245.32V246.88Z" fill="white"/>
    <path d="M236.78 210.92H222.03V211.92H236.78V210.92Z" fill="white"/>
    <path d="M226.49 237.38H221.75V238.38H226.49V237.38Z" fill="white"/>
    <path d="M230.82 237.38H228.08V238.38H230.82V237.38Z" fill="white"/>
    <path d="M240.65 237.38H232.91V238.38H240.65V237.38Z" fill="white"/>
    <path d="M241.94 164.5C241.69 176.6 229.12 186.75 213.85 187.15C209.161 187.308 204.493 186.445 200.17 184.62C198.63 188.42 195.39 191.68 186.1 193.14C195.79 185.65 190.49 179.31 188.28 173.74C187.137 171.308 186.565 168.647 186.61 165.96C186.86 153.85 199.43 143.72 214.7 143.31C229.97 142.9 242.18 152.4 241.94 164.5Z" fill="#407BFF"/>
    <path d="M214.6 151.83H201.29V152.83H214.6V151.83Z" fill="white"/>
    <path d="M209.13 160.5H204.39V161.5H209.13V160.5Z" fill="white"/>
    <path d="M229.76 170.22H225.02V171.22H229.76V170.22Z" fill="white"/>
    <path d="M209.13 177.93H204.39V178.93H209.13V177.93Z" fill="white"/>
    <path d="M215.97 177.93H211.23V178.93H215.97V177.93Z" fill="white"/>
    <path d="M223.34 170.22H211.23V171.22H223.34V170.22Z" fill="white"/>
    <path d="M226.25 177.93H218.28V178.93H226.25V177.93Z" fill="white"/>
    <path d="M226.26 160.5H211.51V161.5H226.26V160.5Z" fill="white"/>
    <path d="M299.67 393.75L292.38 391.57L294.08 373.7L301.37 375.88L299.67 393.75Z" fill="#7F3E3B"/>
    <path opacity="0.2" d="M301.97 371.84L294.68 369.67L293.73 379.68L301.1 381.05L301.97 371.84Z" fill="black"/>
    <path d="M342.82 283.38C342.82 283.38 292.69 287.61 293.92 309.38C294.92 327.2 297.57 322.38 292.38 375.38L304.99 376.08C304.99 376.08 317.82 332.74 316.09 315.52C330.22 315.52 362.57 316.76 367.27 304.01C369.602 297.535 370.737 290.691 370.62 283.81L342.82 283.38Z" fill="#407BFF"/>
    <path d="M306.99 378.48L290.51 375.66L290.78 368.37L307.84 372.16L306.99 378.48Z" fill="#263238"/>
    <path d="M291.63 388.57L300.05 390.24C300.203 390.276 300.337 390.368 300.426 390.497C300.514 390.627 300.552 390.785 300.53 390.94L299.83 398.94C299.817 399.128 299.767 399.313 299.683 399.481C299.598 399.65 299.481 399.801 299.337 399.924C299.194 400.046 299.027 400.139 298.848 400.197C298.668 400.255 298.478 400.276 298.29 400.26C295.37 399.62 293.99 399.15 290.29 398.41C288.01 397.96 282.8 396.87 279.63 396.51C276.46 396.15 276.84 392.45 278.21 392.26C284.37 391.45 287.87 390.45 290.26 388.91C290.655 388.622 291.146 388.5 291.63 388.57Z" fill="#263238"/>
    <path d="M287.85 390C288.513 390.09 289.183 390.11 289.85 390.06C289.884 390.061 289.917 390.051 289.944 390.031C289.971 390.011 289.991 389.983 290 389.95C290.015 389.921 290.023 389.888 290.023 389.855C290.023 389.822 290.015 389.789 290 389.76C289.79 389.55 287.9 387.76 286.93 387.96C286.818 387.978 286.712 388.027 286.626 388.101C286.54 388.175 286.475 388.272 286.44 388.38C286.361 388.537 286.325 388.712 286.336 388.888C286.346 389.064 286.403 389.233 286.5 389.38C286.854 389.752 287.337 389.974 287.85 390ZM289.46 389.73C288.07 389.73 287.09 389.57 286.8 389.16C286.741 389.064 286.709 388.953 286.709 388.84C286.709 388.727 286.741 388.616 286.8 388.52C286.816 388.466 286.845 388.418 286.886 388.379C286.926 388.341 286.976 388.313 287.03 388.3C287.5 388.2 288.68 389 289.5 389.74L289.46 389.73Z" fill="#407BFF"/>
    <path d="M289.86 390.07H289.94C289.969 390.059 289.994 390.042 290.015 390.019C290.036 389.996 290.051 389.969 290.06 389.94C290.06 389.85 290.61 387.72 289.97 386.87C289.892 386.756 289.788 386.663 289.666 386.599C289.544 386.534 289.408 386.5 289.27 386.5C289.12 386.478 288.967 386.508 288.837 386.584C288.706 386.661 288.605 386.779 288.55 386.92C288.24 387.71 289.1 389.46 289.77 390.03C289.781 390.043 289.795 390.054 289.81 390.061C289.826 390.068 289.843 390.071 289.86 390.07ZM289.34 386.86C289.479 386.889 289.604 386.967 289.69 387.08C289.978 387.87 290.009 388.731 289.78 389.54C289.17 388.857 288.848 387.965 288.88 387.05C288.88 386.95 288.99 386.84 289.25 386.85L289.34 386.86Z" fill="#407BFF"/>
    <path d="M267.17 396.53L260.23 393.41L265.03 376.29L271.97 379.41L267.17 396.53Z" fill="#7F3E3B"/>
    <path opacity="0.2" d="M273.14 375L266.2 371.88L263.73 380.71L270.67 383.83L273.14 375Z" fill="black"/>
    <path d="M327.9 283.38C327.57 283.38 271.7 289.13 271.63 308.08C271.51 339.42 262.56 375.34 262.56 375.34L273.56 380.81C273.56 380.81 292.79 341.87 292.5 317.44C307.87 313.03 347.63 320.44 352.33 307.7C356.18 297.28 354.1 283.38 354.1 283.38H327.9Z" fill="#407BFF"/>
    <path d="M275.36 382.4L260.56 375.74L261.75 369.68L277.36 375.07L275.36 382.4Z" fill="#263238"/>
    <path d="M260.92 387.66L269.36 389.41C269.518 389.463 269.653 389.57 269.739 389.713C269.825 389.856 269.858 390.025 269.83 390.19L269.17 398.94C269.05 399.89 268.37 400.54 267.64 400.39C264.72 399.72 263.34 399.2 259.64 398.39C257.36 397.93 251.15 396.39 248.02 395.6C244.89 394.81 245.59 390.8 247.02 390.77C253.21 390.68 257.22 389.67 259.6 387.94C259.789 387.805 260.003 387.71 260.231 387.662C260.458 387.613 260.693 387.613 260.92 387.66Z" fill="#263238"/>
    <path d="M257.5 389.55C258.087 389.227 258.64 388.845 259.15 388.41C259.176 388.386 259.195 388.356 259.205 388.323C259.216 388.29 259.217 388.254 259.21 388.22C259.2 388.187 259.18 388.158 259.154 388.137C259.127 388.115 259.094 388.103 259.06 388.1C258.77 388.1 256.19 387.72 255.52 388.47C255.446 388.555 255.395 388.657 255.37 388.767C255.346 388.877 255.349 388.992 255.38 389.1C255.41 389.273 255.484 389.436 255.597 389.571C255.709 389.706 255.855 389.809 256.02 389.87C256.536 389.952 257.064 389.838 257.5 389.55ZM258.63 388.38C257.54 389.23 256.63 389.64 256.16 389.5C256.055 389.453 255.964 389.379 255.895 389.286C255.827 389.193 255.784 389.084 255.77 388.97C255.753 388.918 255.751 388.863 255.764 388.81C255.776 388.758 255.802 388.709 255.84 388.67C256.14 388.31 257.5 388.28 258.58 388.38H258.63Z" fill="#407BFF"/>
    <path d="M259.1 388.41L259.17 388.36C259.187 388.335 259.196 388.305 259.196 388.275C259.196 388.245 259.187 388.215 259.17 388.19C259.12 388.12 258.29 386.07 257.28 385.76C257.15 385.719 257.011 385.708 256.876 385.729C256.741 385.75 256.612 385.801 256.5 385.88C256.366 385.952 256.26 386.067 256.2 386.207C256.14 386.347 256.129 386.503 256.17 386.65C256.38 387.48 258.11 388.37 259 388.43L259.1 388.41ZM256.77 386.13C256.836 386.101 256.908 386.086 256.98 386.086C257.052 386.086 257.124 386.101 257.19 386.13C257.894 386.595 258.433 387.27 258.73 388.06C257.831 387.873 257.04 387.347 256.52 386.59C256.46 386.51 256.52 386.35 256.7 386.21L256.77 386.13Z" fill="#407BFF"/>
    <path d="M346.88 222.92C348.35 226.08 349.56 229.12 350.77 232.28C351.98 235.44 353.05 238.6 354.04 241.84C355.03 245.08 355.89 248.4 356.58 251.84C357.333 255.414 357.708 259.057 357.7 262.71C357.689 264.855 357.369 266.987 356.75 269.04C356.358 270.297 355.796 271.495 355.08 272.6C354.657 273.222 354.178 273.804 353.65 274.34L353.22 274.76C352.98 274.96 352.72 275.18 352.47 275.35C352.047 275.637 351.598 275.885 351.13 276.09C350.434 276.389 349.71 276.62 348.97 276.78C348.386 276.901 347.795 276.988 347.2 277.04C346.184 277.1 345.166 277.1 344.15 277.04C342.346 276.951 340.549 276.75 338.77 276.44C332.132 275.232 325.631 273.369 319.36 270.88L320.81 265.37C327.16 266.13 333.64 266.94 339.75 267.22C341.27 267.22 342.75 267.29 344.13 267.22C344.744 267.183 345.356 267.106 345.96 266.99C346.46 266.9 346.89 266.72 346.74 266.73C346.639 266.76 346.545 266.808 346.46 266.87C346.359 266.929 346.265 266.999 346.18 267.08C346.213 267.025 346.244 266.968 346.27 266.91C346.398 266.624 346.499 266.326 346.57 266.02C346.79 264.921 346.88 263.8 346.84 262.68C346.688 259.816 346.263 256.973 345.57 254.19C344.89 251.19 344.01 248.27 343.05 245.3C342.09 242.33 341.05 239.36 339.91 236.4C338.77 233.44 337.57 230.47 336.39 227.68L346.88 222.92Z" fill="#7F3E3B"/>
    <path d="M323.57 266.87L316.94 263.14L313.61 270.32C313.61 270.32 321.36 273.55 322.99 271.53L323.57 266.87Z" fill="#7F3E3B"/>
    <path d="M311.57 264.5L308.54 269.3L313.61 270.27L316.94 263.09L311.57 264.5Z" fill="#7F3E3B"/>
    <path d="M331.42 228.62C330.15 231.81 328.82 234.86 327.42 237.95C326.02 241.04 324.62 244.08 323.14 247.12C320.16 253.309 316.821 259.32 313.14 265.12C312.14 266.6 311.14 268.07 310.02 269.54C309.46 270.28 308.84 271.01 308.18 271.76C307.82 272.14 307.53 272.49 307.11 272.88L306.51 273.46L306.17 273.78C305.218 274.594 304.098 275.188 302.89 275.52C302.253 275.701 301.605 275.838 300.95 275.93C299.882 276.058 298.805 276.102 297.73 276.06C295.873 276.002 294.022 275.818 292.19 275.51C285.41 274.312 278.77 272.429 272.37 269.89L273.83 264.37C280.3 265.15 286.91 265.98 293.13 266.24C294.597 266.295 296.065 266.275 297.53 266.18C298.12 266.131 298.705 266.038 299.28 265.9C299.467 265.853 299.648 265.786 299.82 265.7C299.88 265.7 299.82 265.63 299.55 265.8C299.45 265.852 299.359 265.919 299.28 266L299.38 265.88L299.66 265.57C299.84 265.39 300.06 265.09 300.27 264.85C300.68 264.33 301.1 263.77 301.52 263.16C302.35 261.97 303.16 260.65 303.96 259.31C305.56 256.63 307.05 253.78 308.51 250.9C309.97 248.02 311.37 245.08 312.75 242.12C315.5 236.22 318.19 230.12 320.75 224.22L331.42 228.62Z" fill="#7F3E3B"/>
    <path d="M276.67 265.81L270.03 262L266.7 269.18C266.7 269.18 274.45 272.42 276.09 270.4L276.67 265.81Z" fill="#7F3E3B"/>
    <path d="M264.67 263.45L261.63 268.24L266.7 269.21L270.03 262.03L264.67 263.45Z" fill="#7F3E3B"/>
    <path d="M348.59 193.14L344.35 198.05L337.88 204.74L338.37 205.95C338.869 207.187 339.16 208.498 339.23 209.83C339.38 212.51 339.12 214.78 334.89 216.6C334.89 216.6 330.45 222.4 341.01 220.79C351.57 219.18 353.16 213.7 353.16 213.7C348.5 210.37 348.22 199.3 348.59 193.14Z" fill="#7F3E3B"/>
    <path d="M327.06 187.6C327.06 188.26 326.73 188.82 326.29 188.84C325.85 188.86 325.5 188.34 325.49 187.68C325.48 187.02 325.83 186.46 326.26 186.44C326.69 186.42 327.05 186.94 327.06 187.6Z" fill="#263238"/>
    <path d="M329.27 185.14C329.206 185.139 329.143 185.123 329.087 185.091C329.031 185.06 328.984 185.015 328.95 184.96C328.691 184.536 328.338 184.176 327.918 183.91C327.499 183.643 327.024 183.475 326.53 183.42C326.427 183.415 326.331 183.37 326.26 183.296C326.189 183.222 326.15 183.123 326.15 183.02C326.15 182.968 326.16 182.917 326.181 182.87C326.201 182.822 326.231 182.78 326.268 182.744C326.306 182.708 326.35 182.681 326.398 182.663C326.447 182.645 326.498 182.637 326.55 182.64C327.173 182.695 327.775 182.896 328.306 183.226C328.837 183.556 329.284 184.006 329.61 184.54C329.663 184.628 329.681 184.733 329.658 184.834C329.636 184.935 329.576 185.023 329.49 185.08C329.423 185.118 329.347 185.139 329.27 185.14Z" fill="#263238"/>
    <path d="M326.82 188C326.281 189.8 325.508 191.522 324.52 193.12C324.931 193.352 325.387 193.49 325.858 193.524C326.328 193.559 326.8 193.489 327.24 193.32L326.82 188Z" fill="#630F0F"/>
    <path d="M349.19 184.27C348.8 192.43 348.98 197.27 344.93 201.59C343.628 203.025 341.959 204.077 340.102 204.632C338.246 205.186 336.273 205.223 334.397 204.739C332.521 204.254 330.814 203.265 329.459 201.88C328.104 200.495 327.153 198.766 326.71 196.88C324.87 189.65 325.83 177.52 333.71 173.88C335.406 173.04 337.293 172.663 339.181 172.787C341.07 172.911 342.892 173.532 344.463 174.586C346.034 175.641 347.299 177.092 348.129 178.792C348.959 180.493 349.325 182.383 349.19 184.27Z" fill="#7F3E3B"/>
    <path d="M352.89 187C351.713 190.461 349.917 193.68 347.59 196.5L336.97 198.5C336.97 198.5 328.58 194.99 330.82 189.21C329.4 188.01 329.93 184.3 330.93 182.26C331.735 182.921 332.751 183.27 333.793 183.243C334.834 183.215 335.831 182.813 336.6 182.11C336.922 182.613 337.355 183.035 337.866 183.344C338.378 183.652 338.954 183.838 339.549 183.887C340.144 183.937 340.742 183.848 341.298 183.628C341.853 183.408 342.35 183.063 342.75 182.62C343.205 183.06 343.756 183.389 344.359 183.581C344.963 183.773 345.603 183.822 346.229 183.726C346.854 183.629 347.449 183.388 347.966 183.023C348.484 182.658 348.909 182.177 349.21 181.62C349.863 182.028 350.627 182.221 351.395 182.17C352.163 182.12 352.896 181.83 353.49 181.34L353.64 181.2C353.784 183.164 353.529 185.137 352.89 187Z" fill="#263238"/>
    <path opacity="0.1" d="M352.89 187C351.713 190.461 349.917 193.68 347.59 196.5L336.97 198.5C336.97 198.5 328.58 194.99 330.82 189.21C329.4 188.01 329.93 184.3 330.93 182.26C331.735 182.921 332.751 183.27 333.793 183.243C334.834 183.215 335.831 182.813 336.6 182.11C336.922 182.613 337.355 183.035 337.866 183.344C338.378 183.652 338.954 183.838 339.549 183.887C340.144 183.937 340.742 183.848 341.298 183.628C341.853 183.408 342.35 183.063 342.75 182.62C343.205 183.06 343.756 183.389 344.359 183.581C344.963 183.773 345.603 183.822 346.229 183.726C346.854 183.629 347.449 183.388 347.966 183.023C348.484 182.658 348.909 182.177 349.21 181.62C349.863 182.028 350.627 182.221 351.395 182.17C352.163 182.12 352.896 181.83 353.49 181.34L353.64 181.2C353.784 183.164 353.529 185.137 352.89 187Z" fill="white"/>
    <path d="M354.42 177.1C354.708 177.776 354.788 178.523 354.649 179.244C354.51 179.966 354.159 180.629 353.64 181.15L353.49 181.29C352.896 181.78 352.163 182.07 351.395 182.12C350.627 182.171 349.863 181.978 349.21 181.57C348.909 182.127 348.484 182.608 347.967 182.973C347.449 183.338 346.854 183.579 346.229 183.676C345.603 183.772 344.963 183.723 344.359 183.531C343.756 183.339 343.205 183.01 342.75 182.57C342.35 183.013 341.853 183.358 341.298 183.578C340.742 183.798 340.144 183.887 339.549 183.837C338.954 183.788 338.378 183.602 337.866 183.294C337.355 182.985 336.922 182.563 336.6 182.06C335.831 182.763 334.834 183.165 333.793 183.193C332.752 183.22 331.735 182.871 330.93 182.21C330.505 181.88 330.162 181.456 329.93 180.97C329.875 180.864 329.828 180.753 329.79 180.64C329.704 180.738 329.611 180.828 329.51 180.91C329.011 181.309 328.401 181.543 327.763 181.58C327.126 181.618 326.492 181.457 325.95 181.12C325.521 180.822 325.177 180.417 324.953 179.945C324.728 179.473 324.631 178.951 324.67 178.43C324.681 178.213 324.718 177.998 324.78 177.79C324.701 177.941 324.6 178.079 324.48 178.2C324.242 178.43 323.96 178.61 323.651 178.731C323.342 178.851 323.012 178.908 322.681 178.9C322.35 178.892 322.024 178.817 321.721 178.682C321.419 178.546 321.147 178.352 320.92 178.11C320.689 177.761 320.532 177.369 320.458 176.957C320.383 176.546 320.393 176.123 320.486 175.716C320.58 175.308 320.755 174.924 321.002 174.586C321.248 174.248 321.56 173.964 321.92 173.75C322.491 173.418 323.14 173.245 323.8 173.25C324.839 173.265 325.846 173.616 326.67 174.25C326.352 173.62 326.267 172.897 326.43 172.21C326.592 171.523 326.991 170.916 327.557 170.494C328.123 170.072 328.82 169.864 329.525 169.905C330.229 169.947 330.897 170.235 331.41 170.72C331.299 170.21 331.343 169.678 331.537 169.193C331.732 168.708 332.067 168.292 332.5 168C333.88 167.2 336.18 167.89 337.3 169.23C337.3 169.23 338.84 165.51 341.5 165.93C342.08 166.01 344.81 167.22 344.74 168.2C344.755 168.262 344.755 168.328 344.74 168.39C344.777 168.313 344.821 168.24 344.87 168.17C345.164 167.773 345.552 167.455 345.998 167.244C346.445 167.033 346.937 166.935 347.43 166.96C348.499 167.039 349.544 167.317 350.51 167.78C352.58 168.63 354.78 169.58 355.98 171.47C357.18 173.36 356.57 176.5 354.42 177.1Z" fill="#263238"/>
    <path d="M335.5 190C335.205 192.014 334.281 193.883 332.86 195.34C331.05 197.07 329.51 195.34 329.49 192.71C329.49 190.33 330.38 186.56 332.49 185.86C334.6 185.16 335.9 187.37 335.5 190Z" fill="#7F3E3B"/>
    <path d="M367.5 216.54C366.75 214.54 363.25 212.54 361.1 212.54H359.68C356.815 212.565 353.954 212.749 351.11 213.09C345.394 213.722 339.718 214.677 334.11 215.95C331.53 216.63 329.04 217.49 327.06 218.23C324.54 219.23 323.06 219.9 323.06 219.9C323.06 219.9 325.82 238.28 327.25 256.54C328.04 266.71 327.71 276.8 327.97 283.74H370.63C372.1 275.4 371.87 268.13 371.99 253.07C372.05 244 370.58 224.77 367.5 216.54Z" fill="#263238"/>
    <path opacity="0.2" d="M326.32 246.34C326.64 250.17 326.97 254.19 327.32 258.21C332.32 250.91 335.08 230.94 335.08 230.94L326.32 246.34Z" fill="black"/>
    <path d="M320.64 221.24C314.53 224.68 308.54 242.24 308.54 242.24L322.54 252.79C327.88 247.74 335.69 235.21 336.54 230.2C337.9 222.56 330.43 215.76 320.64 221.24Z" fill="#263238"/>
    <path d="M308.56 400.44C308.56 401.3 308.305 402.141 307.827 402.857C307.349 403.572 306.67 404.13 305.875 404.459C305.08 404.788 304.205 404.874 303.361 404.706C302.518 404.539 301.742 404.124 301.134 403.516C300.526 402.908 300.111 402.132 299.944 401.289C299.776 400.445 299.862 399.57 300.191 398.775C300.52 397.98 301.078 397.301 301.793 396.823C302.509 396.345 303.35 396.09 304.21 396.09C305.364 396.09 306.47 396.548 307.286 397.364C308.102 398.18 308.56 399.286 308.56 400.44Z" fill="#263238"/>
    <path d="M373.5 400.44C373.5 401.3 373.755 402.141 374.233 402.857C374.711 403.572 375.39 404.13 376.185 404.459C376.98 404.788 377.855 404.874 378.699 404.706C379.542 404.539 380.318 404.124 380.926 403.516C381.534 402.908 381.949 402.132 382.116 401.289C382.284 400.445 382.198 399.57 381.869 398.775C381.54 397.98 380.982 397.301 380.267 396.823C379.551 396.345 378.71 396.09 377.85 396.09C376.696 396.09 375.59 396.548 374.774 397.364C373.958 398.18 373.5 399.286 373.5 400.44Z" fill="#263238"/>
    <path d="M336.77 399C336.77 399.86 337.025 400.701 337.503 401.417C337.981 402.132 338.66 402.69 339.455 403.019C340.25 403.348 341.125 403.434 341.969 403.266C342.812 403.099 343.588 402.684 344.196 402.076C344.804 401.468 345.219 400.692 345.386 399.849C345.554 399.005 345.468 398.13 345.139 397.335C344.81 396.54 344.252 395.861 343.537 395.383C342.821 394.905 341.98 394.65 341.12 394.65C339.966 394.65 338.86 395.108 338.044 395.924C337.228 396.74 336.77 397.846 336.77 399Z" fill="#263238"/>
    <path d="M339.77 393.68V385.27H327.31C324.864 385.267 322.423 385.494 320.02 385.95L296.82 390.45C296.3 390.551 295.836 390.845 295.523 391.273C295.209 391.7 295.068 392.23 295.127 392.757C295.186 393.284 295.442 393.769 295.842 394.116C296.243 394.463 296.76 394.647 297.29 394.63L339.77 393.68Z" fill="#263238"/>
    <path d="M339.77 393.68V385.27H352.24C354.678 385.284 357.108 385.529 359.5 386L385.58 390.16C386.1 390.261 386.564 390.555 386.877 390.983C387.191 391.41 387.332 391.94 387.273 392.467C387.214 392.994 386.958 393.479 386.558 393.826C386.157 394.173 385.64 394.357 385.11 394.34L339.77 393.68Z" fill="#263238"/>
    <path d="M347.48 346.77H332.05V385.28H347.48V346.77Z" fill="#263238"/>
    <path d="M345.27 328.85H334.27V346.76H345.27V328.85Z" fill="#263238"/>
    <path opacity="0.5" d="M334.27 334.11L345.27 336.88V328.85H334.27V334.11Z" fill="black"/>
    <path d="M304.21 288.33H298.62V312.18H304.21V288.33Z" fill="#263238"/>
    <path d="M332.24 328.85V225.16C332.239 223.22 332.653 221.302 333.455 219.536C334.257 217.77 335.429 216.196 336.89 214.92L344.28 208.45C346.769 206.267 349.97 205.069 353.28 205.08H379.97L392.99 219V328.85H332.24Z" fill="#407BFF"/>
    <path d="M292.5 308.79H353.4V328.85H282.57C281.3 328.848 280.053 328.51 278.955 327.872C277.858 327.233 276.948 326.315 276.319 325.212C275.69 324.109 275.363 322.859 275.372 321.589C275.381 320.319 275.725 319.074 276.37 317.98C278.026 315.176 280.385 312.854 283.214 311.242C286.043 309.63 289.244 308.785 292.5 308.79Z" fill="#407BFF"/>
    <path opacity="0.7" d="M392.99 219V328.85H282.57C281.3 328.848 280.053 328.51 278.955 327.872C277.858 327.233 276.948 326.315 276.319 325.212C275.69 324.109 275.363 322.859 275.372 321.589C275.381 320.319 275.725 319.074 276.37 317.98C278.027 315.177 280.386 312.855 283.215 311.243C286.044 309.632 289.244 308.786 292.5 308.79H323.17C325.586 308.79 327.903 307.83 329.612 306.122C331.32 304.413 332.28 302.096 332.28 299.68V225.16C332.279 223.22 332.693 221.302 333.495 219.536C334.297 217.77 335.468 216.196 336.93 214.92L344.32 208.45C346.809 206.267 350.01 205.069 353.32 205.08H380.01L392.99 219Z" fill="white"/>
    <path d="M341.12 328.85V225.16C341.121 223.22 341.537 221.304 342.339 219.538C343.141 217.772 344.31 216.197 345.77 214.92L353.16 208.45C355.649 206.267 358.85 205.069 362.16 205.08H382.97C384.829 205.079 386.669 205.459 388.375 206.196C390.081 206.934 391.618 208.014 392.89 209.37L398.21 215.02C400.581 217.548 401.9 220.884 401.9 224.35V318.46C401.901 319.826 401.633 321.178 401.111 322.44C400.589 323.702 399.822 324.848 398.856 325.813C397.89 326.779 396.743 327.544 395.481 328.065C394.218 328.586 392.866 328.853 391.5 328.85H341.12Z" fill="#407BFF"/>
    <path opacity="0.5" d="M341.12 328.85V225.16C341.121 223.22 341.537 221.304 342.339 219.538C343.141 217.772 344.31 216.197 345.77 214.92L353.16 208.45C355.649 206.267 358.85 205.069 362.16 205.08H382.97C384.829 205.079 386.669 205.459 388.375 206.196C390.081 206.934 391.618 208.014 392.89 209.37L398.21 215.02C400.581 217.548 401.9 220.884 401.9 224.35V318.46C401.901 319.826 401.633 321.178 401.111 322.44C400.589 323.702 399.822 324.848 398.856 325.813C397.89 326.779 396.743 327.544 395.481 328.065C394.218 328.586 392.866 328.853 391.5 328.85H341.12Z" fill="white"/>
    <path d="M320.4 295.61C308.098 291.31 294.702 291.31 282.4 295.61C281.165 296.071 279.805 296.066 278.574 295.597C277.343 295.127 276.325 294.226 275.71 293.06C274.57 290.65 276.1 287.53 279.2 286.44C293.567 281.42 309.213 281.42 323.58 286.44C326.68 287.52 328.21 290.65 327.07 293.06C326.456 294.221 325.441 295.12 324.214 295.589C322.987 296.058 321.632 296.065 320.4 295.61Z" fill="#407BFF"/>
    <path opacity="0.7" d="M320.4 295.61C308.098 291.31 294.702 291.31 282.4 295.61C281.165 296.071 279.805 296.066 278.574 295.597C277.343 295.127 276.325 294.226 275.71 293.06C274.57 290.65 276.1 287.53 279.2 286.44C293.567 281.42 309.213 281.42 323.58 286.44C326.68 287.52 328.21 290.65 327.07 293.06C326.456 294.221 325.441 295.12 324.214 295.589C322.987 296.058 321.632 296.065 320.4 295.61Z" fill="white"/>
    <path d="M164.99 196.39C164.78 196.98 164.93 197.57 165.32 197.7C165.71 197.83 166.19 197.47 166.39 196.88C166.59 196.29 166.45 195.69 166.07 195.56C165.69 195.43 165.2 195.79 164.99 196.39Z" fill="#263238"/>
    <path d="M164.88 197C164.962 199.059 165.321 201.098 165.95 203.06C165.446 203.202 164.918 203.235 164.4 203.156C163.883 203.076 163.388 202.887 162.95 202.6L164.88 197Z" fill="#A02724"/>
    <path d="M164.03 192.37C164.066 192.385 164.106 192.393 164.145 192.393C164.184 192.393 164.224 192.385 164.26 192.37C164.7 192.23 165.166 192.193 165.622 192.263C166.078 192.332 166.512 192.506 166.89 192.77C166.929 192.799 166.974 192.82 167.021 192.832C167.069 192.844 167.118 192.846 167.167 192.839C167.215 192.831 167.261 192.814 167.303 192.789C167.345 192.763 167.381 192.73 167.41 192.69C167.465 192.622 167.495 192.537 167.495 192.45C167.495 192.363 167.465 192.278 167.41 192.21C166.94 191.861 166.394 191.629 165.817 191.533C165.239 191.438 164.647 191.481 164.09 191.66C163.999 191.694 163.924 191.762 163.881 191.849C163.838 191.937 163.831 192.037 163.86 192.13C163.877 192.184 163.907 192.233 163.947 192.273C163.987 192.313 164.036 192.343 164.09 192.36L164.03 192.37Z" fill="#263238"/>
    <path d="M143.06 198.57C144.18 204.26 145.29 214.69 141.31 218.49C141.31 218.49 142.87 224.26 153.45 224.26C165.08 224.26 159.01 218.49 159.01 218.49C152.66 216.97 153.68 212.26 154.79 207.84L143.06 198.57Z" fill="#B55B52"/>
    <path d="M145.65 188.25C143.57 195.69 141.97 199.94 144.35 204.95C147.92 212.5 160.4 213.48 163.8 204.84C166.39 196.84 168.95 188.47 162.8 183.1C161.455 181.909 159.829 181.081 158.075 180.695C156.321 180.309 154.497 180.377 152.776 180.893C151.056 181.408 149.496 182.355 148.243 183.642C146.991 184.93 146.088 186.516 145.62 188.25H145.65Z" fill="#B55B52"/>
    <path d="M137.59 190.73C137.05 187.99 136.91 184.99 138.28 182.55C139.65 180.11 142.96 178.62 145.37 180.04C146.153 178.391 147.312 176.947 148.752 175.826C150.193 174.704 151.877 173.935 153.668 173.581C155.459 173.226 157.308 173.296 159.068 173.784C160.827 174.272 162.448 175.166 163.8 176.392C165.153 177.619 166.199 179.146 166.856 180.849C167.513 182.553 167.762 184.387 167.583 186.204C167.404 188.021 166.802 189.771 165.826 191.314C164.85 192.857 163.526 194.15 161.96 195.09C162.51 193.04 163.07 191 163.62 188.95C163.129 191.804 161.614 194.382 159.36 196.2L160.36 190.07C160.203 191.517 159.711 192.907 158.923 194.131C158.135 195.355 157.072 196.378 155.82 197.12L156.99 192.83C156.397 194.803 155.641 196.723 154.73 198.57C153.73 199.72 153.09 207.24 149.65 207.48C137.83 209.83 138.85 197.13 137.59 190.73Z" fill="#263238"/>
    <path d="M153.5 194.29C153.3 196.198 153.729 198.118 154.72 199.76C156.05 201.9 158 201.08 158.72 198.89C159.36 196.89 159.43 193.44 157.58 192.05C155.73 190.66 153.78 192 153.5 194.29Z" fill="#B55B52"/>
    <path d="M125.31 266.37C124.04 265.95 118.09 262.89 117.14 263.44C119.89 256.44 121.6 255.35 122.85 250.89C123.198 249.783 123.259 248.605 123.026 247.468C122.793 246.331 122.275 245.272 121.52 244.39C119.76 242.03 119.15 240.84 116.23 241.13C112.23 247.85 107.14 256.13 105.16 263.72C104.49 266.27 104.01 268.21 105.53 270.37C106.87 272.27 109.34 273.03 111.66 273.24C117.23 273.74 125.5 272.72 125.39 269.41C125.33 267.32 125.31 266.37 125.31 266.37Z" fill="#B55B52"/>
    <path d="M124.37 266.12L129.09 264.59L128.67 273.12C128.67 273.12 124.89 273.25 122.87 270.72L124.37 266.12Z" fill="#B55B52"/>
    <path d="M134.99 264.45L134.32 271.49L128.67 273.12L129.09 264.59L134.99 264.45Z" fill="#B55B52"/>
    <path d="M189.11 272.18C189.11 272.18 182.5 267 173.88 250C172.6 247.62 171.38 245.21 170.2 242.79C169.02 240.37 167.9 237.95 166.82 235.38L177.04 230.98C179.14 235.56 182.42 240.29 184.74 244.84C187.06 249.39 192.53 260.17 193.22 261.17C193.56 261.69 193.93 262.12 194.28 262.6L194.81 263.3L188.22 270.92L189.11 272.18Z" fill="#B55B52"/>
    <path d="M197.76 239L195.76 236.56L194.82 232.91L200.99 227.18C201.934 228.38 202.773 229.658 203.5 231C203.659 231.309 203.735 231.653 203.72 232L203.47 238.43L197.76 239Z" fill="#B55B52"/>
    <path d="M194.86 228.97L199.47 224.78L200.93 227.23L194.77 232.93L194.86 228.97Z" fill="#B55B52"/>
    <path d="M197.85 237.24C198.01 236.55 198.15 237.9 198.61 237.36C199.97 235.72 201.95 235.55 203.13 237.36C204.31 239.17 203.3 256.98 201.42 262.57C200.17 266.28 199.5 269.24 196.3 271.5C195.007 272.498 193.433 273.065 191.8 273.12C190.987 273.13 190.188 272.907 189.497 272.479C188.806 272.05 188.252 271.433 187.9 270.7C186.9 268.37 190.48 259.97 191.74 257.26C195.69 248.73 195.96 245.3 197.85 237.24Z" fill="#B55B52"/>
    <path d="M184.62 236.47L192.79 236.39C193.956 236.465 195.124 236.28 196.21 235.85C197.541 235.073 198.535 233.829 199 232.36C200.16 229.36 200.26 226.14 200.71 223C201.16 219.86 202.12 216.56 204.5 214.45C200.16 215.03 192.5 213.67 189.15 217.22C187.39 219.11 184.28 236.47 184.62 236.47Z" fill="#407BFF"/>
    <path opacity="0.5" d="M184.62 236.47L192.79 236.39C193.956 236.465 195.124 236.28 196.21 235.85C197.541 235.073 198.535 233.829 199 232.36C200.16 229.36 200.26 226.14 200.71 223C201.16 219.86 202.12 216.56 204.5 214.45C200.16 215.03 192.5 213.67 189.15 217.22C187.39 219.11 184.28 236.47 184.62 236.47Z" fill="white"/>
    <path d="M198.6 224.33C198.13 224.46 197.82 226.13 197.92 226.61L198.38 227.43L199.31 231.43L202.43 229.71L199.62 224.71C199.513 224.546 199.356 224.421 199.172 224.353C198.989 224.285 198.788 224.277 198.6 224.33Z" fill="#B55B52"/>
    <path d="M128.13 219.92C120.83 221.59 110.03 244.34 110.03 244.34L124.68 254.34C128.899 248.32 132.708 242.022 136.08 235.49C140.41 226.43 135.59 218.21 128.13 219.92Z" fill="#407BFF"/>
    <path d="M138.79 220.47C137.95 218.64 137.04 216.55 138.93 215.9C141.02 215.18 152.46 214.44 156.4 215.79C156.916 215.93 157.399 216.171 157.822 216.498C158.245 216.825 158.599 217.233 158.864 217.698C159.129 218.162 159.299 218.675 159.365 219.205C159.432 219.736 159.392 220.275 159.25 220.79V220.86L138.79 220.47Z" fill="#263238"/>
    <path opacity="0.2" d="M132.64 233.06L122.23 252.66L124.68 254.34C124.68 254.34 129.4 247.77 132.68 242.09L132.64 233.06Z" fill="black"/>
    <path d="M172.5 229.93C174.08 237.93 170.39 256.93 170.43 287.93H128.81C128.54 281.67 133.1 266.83 127.43 237.27C127.25 236.27 127.17 220.12 128.13 219.95C132.16 219.246 136.227 218.765 140.31 218.51C146.205 218.17 152.115 218.17 158.01 218.51C160.42 218.76 164.21 220.25 166.61 221.11C170.34 222.43 171.74 226 172.5 229.93Z" fill="#407BFF"/>
    <path opacity="0.2" d="M161.5 237.88C162.58 244.45 166.89 253.13 171.18 258.23C171.35 254.5 171.73 250.6 171.72 247.61L161.5 237.88Z" fill="black"/>
    <path d="M158.5 228C157.5 235.37 172 254.18 172 254.18L186.59 244.18C186.59 244.18 182.54 233.81 175.73 227.01C168 219.23 159.67 220 158.5 228Z" fill="#407BFF"/>
    <path d="M206.22 391.13H214L215.77 373.1H207.99L206.22 391.13Z" fill="#B55B52"/>
    <path opacity="0.2" d="M215.65 374.19L214.75 383.48H206.96L207.87 374.19H215.65Z" fill="black"/>
    <path d="M175.53 391.13H183.31L187.22 373.1H179.44L175.53 391.13Z" fill="#B55B52"/>
    <g opacity="0.2">
    <path d="M179.27 374.06H187.05L185.03 383.35H177.25L179.27 374.06Z" fill="black"/>
    </g>
    <path d="M214.44 387.63H205.95C205.774 387.65 205.611 387.732 205.489 387.859C205.367 387.987 205.293 388.154 205.28 388.33L203.74 397.23C203.651 397.575 203.687 397.941 203.841 398.262C203.994 398.584 204.256 398.842 204.58 398.99C204.673 399.005 204.767 399.005 204.86 398.99C207.92 398.93 212.35 398.69 216.2 398.69C220.71 398.69 224.6 399 229.88 399C233.08 399 233.97 394.82 232.63 394.45C226.54 392.73 221.57 392.55 216.31 388.34C215.786 387.896 215.126 387.646 214.44 387.63Z" fill="#263238"/>
    <path d="M220.62 390.52C221.62 390.52 222.62 390.38 222.91 389.93C222.993 389.811 223.037 389.67 223.037 389.525C223.037 389.38 222.993 389.239 222.91 389.12C222.777 388.909 222.57 388.756 222.33 388.69C221.03 388.34 218.33 389.89 218.2 389.96C218.166 389.977 218.138 390.005 218.122 390.039C218.106 390.074 218.102 390.113 218.11 390.15C218.115 390.186 218.132 390.22 218.157 390.247C218.182 390.274 218.214 390.292 218.25 390.3C219.031 390.448 219.825 390.522 220.62 390.52ZM221.86 389.01H222.21C222.285 389.025 222.356 389.056 222.418 389.101C222.48 389.146 222.532 389.204 222.57 389.27C222.7 389.5 222.66 389.61 222.57 389.67C222.21 390.18 220.24 390.19 218.79 389.98C219.744 389.466 220.785 389.134 221.86 389V389.01Z" fill="#407BFF"/>
    <path d="M218.27 390.3H218.35C219.29 389.88 221.15 388.2 221 387.3C221 387.09 220.82 386.84 220.32 386.78C219.958 386.753 219.599 386.868 219.32 387.1C218.32 387.91 218.12 390.01 218.11 390.1C218.105 390.132 218.109 390.165 218.122 390.195C218.134 390.225 218.154 390.251 218.18 390.27C218.206 390.289 218.238 390.299 218.27 390.3ZM220.17 387.15H220.28C220.61 387.15 220.63 387.32 220.64 387.36C220.73 387.89 219.46 389.21 218.5 389.78C218.582 388.9 218.931 388.066 219.5 387.39C219.691 387.238 219.926 387.154 220.17 387.15Z" fill="#407BFF"/>
    <path d="M183.86 387.63H175.12C174.945 387.651 174.784 387.732 174.663 387.86C174.542 387.988 174.471 388.154 174.46 388.33L172.92 397.23C172.836 397.583 172.88 397.953 173.043 398.277C173.205 398.601 173.477 398.857 173.81 399C173.893 399.01 173.977 399.01 174.06 399C177.11 398.94 178.6 398.7 182.44 398.7C184.81 398.7 187.84 399.01 191.11 399.01C194.38 399.01 194.8 394.83 193.46 394.46C187.46 392.76 187.05 390.46 185.13 388.18C184.971 388.002 184.775 387.86 184.555 387.765C184.336 387.67 184.099 387.624 183.86 387.63Z" fill="#263238"/>
    <path d="M188.43 391.51C188.76 391.555 189.096 391.534 189.417 391.446C189.738 391.358 190.039 391.207 190.3 391C190.392 390.874 190.441 390.721 190.441 390.565C190.441 390.409 190.392 390.256 190.3 390.13C190.241 390.02 190.158 389.925 190.058 389.85C189.958 389.776 189.842 389.725 189.72 389.7C188.58 389.43 186.43 390.9 186.34 390.96C186.311 390.982 186.289 391.011 186.275 391.044C186.261 391.078 186.256 391.114 186.26 391.15C186.266 391.185 186.282 391.217 186.308 391.242C186.333 391.268 186.365 391.284 186.4 391.29C187.067 391.438 187.747 391.512 188.43 391.51ZM189.43 390.03H189.65C189.721 390.043 189.788 390.072 189.846 390.113C189.905 390.154 189.954 390.208 189.99 390.27C190.16 390.58 190.06 390.7 189.99 390.75C189.66 391.18 188.07 391.19 186.9 391C187.652 390.484 188.509 390.142 189.41 390L189.43 390.03Z" fill="#407BFF"/>
    <path d="M186.5 391.3C187.31 390.86 188.87 389.16 188.7 388.3C188.674 388.162 188.601 388.038 188.494 387.948C188.386 387.859 188.25 387.81 188.11 387.81C187.971 387.796 187.83 387.811 187.696 387.852C187.562 387.893 187.438 387.96 187.33 388.05C186.43 388.79 186.24 391.05 186.23 391.13C186.229 391.164 186.236 391.197 186.252 391.227C186.268 391.257 186.291 391.282 186.32 391.3H186.5ZM188.07 388.15H188.15C188.39 388.15 188.41 388.29 188.42 388.34C188.52 388.85 187.52 390.14 186.72 390.75C186.782 389.864 187.102 389.016 187.64 388.31C187.76 388.208 187.912 388.151 188.07 388.15Z" fill="#407BFF"/>
    <path d="M157.96 287.91C157.96 287.91 194.81 303.13 202.43 314.82C197.9 344.56 189.77 378.44 189.77 378.44H175.91C175.932 363.781 177.133 349.147 179.5 334.68C181.5 298.33 116.08 335.94 128.79 287.91H157.96Z" fill="#263238"/>
    <path opacity="0.3" d="M183.44 313C180.859 313.152 178.288 313.449 175.74 313.89L167.67 315.13C171.833 318.628 176.226 321.842 180.82 324.75C183.61 326.52 186.65 328.22 189.94 328.23C193.64 328.23 203.68 323.49 202.02 318.56C200.36 313.63 187.64 312.82 183.44 313Z" fill="black"/>
    <path d="M170.44 287.91C170.44 287.91 204.5 292.31 223.28 303C229.06 306.29 228.28 316.86 228.1 323.82C227.697 342.497 224.113 360.968 217.5 378.44H205.92C205.92 378.44 206.51 359.57 206.12 329.12C206 319.99 187.57 316.98 169.56 315.92C161.933 315.44 154.592 312.839 148.366 308.409C142.139 303.98 137.274 297.898 134.32 290.85L133.09 287.91H170.44Z" fill="#263238"/>
    <path d="M220.31 375.34C220.37 375.34 219.56 380.81 219.56 380.81H203.56L203.12 375.93L220.31 375.34Z" fill="#407BFF"/>
    <path d="M191.11 375.34C191.17 375.34 189.64 380.81 189.64 380.81H173.64L173.93 375.93L191.11 375.34Z" fill="#407BFF"/>
    <path d="M148.12 315.51L136.65 400.02L134.58 399.73L143.43 314.87L148.12 315.51Z" fill="#407BFF"/>
    <path opacity="0.4" d="M147.71 318.54L136.65 400.02L134.58 399.73L143.05 318.52L147.71 318.54Z" fill="black"/>
    <path d="M188.44 318.53H123.44C123.44 317.556 123.632 316.591 124.005 315.69C124.378 314.79 124.924 313.972 125.613 313.283C126.302 312.594 127.12 312.048 128.02 311.675C128.921 311.302 129.886 311.11 130.86 311.11H181.02C181.994 311.11 182.959 311.302 183.86 311.675C184.76 312.048 185.578 312.594 186.267 313.283C186.956 313.972 187.502 314.79 187.875 315.69C188.248 316.591 188.44 317.556 188.44 318.53Z" fill="#407BFF"/>
    <path opacity="0.7" d="M188.44 318.53H123.44C123.44 317.556 123.632 316.591 124.005 315.69C124.378 314.79 124.924 313.972 125.613 313.283C126.302 312.594 127.12 312.048 128.02 311.675C128.921 311.302 129.886 311.11 130.86 311.11H181.02C181.994 311.11 182.959 311.302 183.86 311.675C184.76 312.048 185.578 312.594 186.267 313.283C186.956 313.972 187.502 314.79 187.875 315.69C188.248 316.591 188.44 317.556 188.44 318.53Z" fill="white"/>
    <path d="M126.45 318.52L116.65 400.69H118.75L131.18 318.52H126.45Z" fill="#407BFF"/>
    <path d="M185.43 318.52L195.23 400.69H193.13L180.71 318.52H185.43Z" fill="#407BFF"/>
    <path opacity="0.4" d="M185.43 318.52L195.23 400.69H193.13L180.71 318.52H185.43Z" fill="black"/>
    <path d="M172.32 318.52L172.51 400.69H170.42L167.59 318.52H172.32Z" fill="#407BFF"/>
    </svg>
    